<svg xmlns="http://www.w3.org/2000/svg" xmlns:xlink="http://www.w3.org/1999/xlink" xmlns:inkscape="http://www.inkscape.org/namespaces/inkscape" version="1.1" width="114.803" height="31.1811" viewBox="0 0 114.803 31.1811">
<defs>
<clipPath id="clip_1">
<path transform="matrix(1,0,0,-1,0,31.1811)" d="M0 31.181H114.803V0H0Z"/>
</clipPath>
</defs>
<g inkscape:groupmode="layer" inkscape:label="Ebene 1">
<g clip-path="url(#clip_1)">
<path transform="matrix(1,0,0,-1,38.5319,6.7115)" d="M0 0-.255-6.617V-6.732C-.255-7.293-.089-7.408 .803-7.471V-7.777C.153-7.726-.102-7.714-.459-7.714-.816-7.714-1.071-7.726-1.734-7.777V-7.471C-.841-7.408-.714-7.305-.688-6.617L-.421-.357V-.281C-.421 .306-.599 .433-1.479 .484V.803C-.982 .765-.79 .752-.433 .752 .038 .752 .293 .765 .778 .816L3.149-5.635 5.559 .816C6.133 .765 6.4 .752 6.783 .752 7.102 .752 7.305 .765 7.79 .803V.484C6.923 .433 6.732 .306 6.732-.268V-.357L6.872-6.617C6.885-7.305 6.999-7.408 7.917-7.471V-7.777C7.114-7.701 6.808-7.675 6.324-7.675 5.839-7.675 5.533-7.701 4.73-7.777V-7.471C5.597-7.42 5.788-7.28 5.788-6.681V-6.617L5.674-.013 3.57-5.699 3.417-6.12 3.238-6.592 3.073-7.076 2.932-7.497H2.741L2.601-7.089 2.422-6.592 2.244-6.094 2.091-5.648Z" fill="#231f20"/>
<path transform="matrix(1,0,0,-1,48.1058,10.8297)" d="M0 0C.128 1.466 .612 2.219 1.428 2.219 2.257 2.219 2.678 1.504 2.754 0ZM1.657-3.34C.497-3.34-.013-2.448-.025-.459H3.774C3.748 1.504 2.945 2.55 1.441 2.55-.089 2.55-1.046 1.313-1.046-.65-1.046-2.614-.089-3.761 1.556-3.761 2.805-3.761 3.621-2.983 3.787-1.67H3.277C3.124-2.754 2.563-3.34 1.657-3.34" fill="#231f20"/>
<path transform="matrix(1,0,0,-1,52.6388,8.751501)" d="M0 0V.229C.727 .293 1.16 .37 1.683 .523 1.747 .051 1.772-.153 1.798-.536V-.676C2.078 .051 2.626 .472 3.29 .472 3.927 .472 4.399 .051 4.399-.561 4.399-.931 4.182-1.173 3.863-1.173 3.57-1.173 3.34-.995 3.34-.74 3.34-.714 3.353-.663 3.366-.612L3.391-.484V-.37C3.391-.191 3.238-.064 3.009-.064 2.346-.064 1.925-.867 1.925-2.129V-4.794C1.925-5.342 2.053-5.444 2.831-5.482V-5.737C2.129-5.674 1.862-5.661 1.415-5.661 .956-5.661 .689-5.674-.013-5.737V-5.482C.765-5.444 .905-5.342 .905-4.794V-.829-.625C.892-.077 .829-.013 .166 0Z" fill="#231f20"/>
<path transform="matrix(1,0,0,-1,61.9144,8.1651)" d="M0 0V-2.103H-.281C-.51-.994-.982-.459-1.76-.459-2.716-.459-3.277-1.491-3.277-3.315-3.277-5.1-2.779-6.005-1.798-6.005-1.007-6.005-.536-5.444-.382-4.322H.14C-.026-5.686-.752-6.426-1.9-6.426-3.379-6.426-4.386-5.176-4.386-3.315-4.386-1.415-3.366-.114-1.862-.114-1.313-.114-.969-.255-.561-.65L-.217 0Z" fill="#231f20"/>
<path transform="matrix(1,0,0,-1,64.0082,10.8297)" d="M0 0C.127 1.466 .612 2.219 1.428 2.219 2.257 2.219 2.677 1.504 2.754 0ZM1.657-3.34C.497-3.34-.013-2.448-.026-.459H3.774C3.748 1.504 2.945 2.55 1.441 2.55-.089 2.55-1.046 1.313-1.046-.65-1.046-2.614-.089-3.761 1.555-3.761 2.805-3.761 3.621-2.983 3.787-1.67H3.277C3.124-2.754 2.563-3.34 1.657-3.34" fill="#231f20"/>
<path transform="matrix(1,0,0,-1,71.3129,14.246401)" d="M0 0C-.918 0-1.402 .956-1.402 2.779-1.402 4.628-.956 5.533-.038 5.533 .905 5.533 1.39 4.564 1.39 2.69 1.39 .918 .918 0 0 0M2.397 1.084V8.444C1.759 8.274 1.186 8.172 .472 8.096V7.879C1.275 7.879 1.377 7.79 1.377 7.127V4.896C.905 5.661 .536 5.89-.153 5.89-1.517 5.89-2.473 4.603-2.473 2.767-2.473 .931-1.504-.357-.115-.357 .612-.357 1.109-.026 1.466 .688 1.517 .204 1.517 .153 1.645-.332 2.167-.166 2.384-.115 3.136-.026L3.328 0V.217C2.473 .242 2.397 .306 2.397 1.084" fill="#231f20"/>
<path transform="matrix(1,0,0,-1,76.1689,10.8297)" d="M0 0C.127 1.466 .612 2.219 1.428 2.219 2.257 2.219 2.677 1.504 2.754 0ZM1.657-3.34C.497-3.34-.013-2.448-.026-.459H3.774C3.748 1.504 2.945 2.55 1.441 2.55-.089 2.55-1.046 1.313-1.046-.65-1.046-2.614-.089-3.761 1.555-3.761 2.805-3.761 3.621-2.983 3.786-1.67H3.277C3.124-2.754 2.563-3.34 1.657-3.34" fill="#231f20"/>
<path transform="matrix(1,0,0,-1,81.0249,14.603601)" d="M0 0V2.129L.28 2.142C.51 .982 1.045 .421 1.938 .421 2.69 .421 3.251 .918 3.251 1.568 3.251 2.002 3.009 2.295 2.384 2.576L1.899 2.792 1.313 3.06C.383 3.493 .089 3.85 .089 4.59 .089 5.597 .879 6.286 2.002 6.286 2.499 6.286 2.868 6.171 3.302 5.878L3.519 6.4H3.748V4.424H3.455C3.34 5.444 2.92 5.929 2.116 5.929 1.441 5.929 .918 5.47 .918 4.87 .918 4.361 1.109 4.195 2.269 3.685L2.805 3.455C3.774 3.035 4.118 2.627 4.118 1.874 4.118 .803 3.264 .038 2.065 .038 1.479 .038 1.02 .191 .535 .574L.229 0Z" fill="#231f20"/>
<path transform="matrix(1,0,0,-1,92.2325,10.204901)" d="M0 0C.676 0 1.058-.115 1.351-.408 1.644-.701 1.81-1.249 1.81-1.861 1.81-3.136 1.173-3.85 .038-3.85H-.421C-1.097-3.85-1.211-3.748-1.211-3.187V0ZM-1.211 3.863H-.128C.943 3.863 1.415 3.34 1.415 2.155 1.415 1.568 1.275 1.147 .994 .816 .714 .497 .37 .395-.344 .395H-1.211ZM2.55 2.18C2.55 2.843 2.269 3.43 1.785 3.799 1.351 4.118 .854 4.258 .025 4.258H-3.328V3.94C-2.41 3.889-2.282 3.786-2.282 3.098V-3.085C-2.282-3.774-2.384-3.863-3.328-3.94V-4.246H-.102C.842-4.246 1.351-4.131 1.887-3.799 2.524-3.391 2.945-2.614 2.945-1.81 2.945-1.122 2.652-.497 2.154-.115 1.887 .089 1.606 .204 1.147 .293 2.065 .638 2.55 1.288 2.55 2.18" fill="#231f20"/>
<path transform="matrix(1,0,0,-1,97.2586,10.8297)" d="M0 0C.128 1.466 .612 2.219 1.428 2.219 2.257 2.219 2.677 1.504 2.754 0ZM1.658-3.34C.497-3.34-.013-2.448-.026-.459H3.774C3.748 1.504 2.945 2.55 1.441 2.55-.089 2.55-1.045 1.313-1.045-.65-1.045-2.614-.089-3.761 1.555-3.761 2.805-3.761 3.621-2.983 3.787-1.67H3.277C3.124-2.754 2.563-3.34 1.658-3.34" fill="#231f20"/>
<path transform="matrix(1,0,0,-1,101.7075,8.802502)" d="M0 0V.217C.739 .319 1.173 .421 1.683 .599 1.747 .306 1.785-.025 1.81-.51 2.269 .179 2.792 .484 3.532 .484 4.297 .484 4.959 .089 5.214-.535 5.342-.841 5.406-1.198 5.406-1.683V-4.743C5.406-5.291 5.533-5.393 6.311-5.431V-5.686C5.635-5.623 5.38-5.61 4.921-5.61 4.449-5.61 4.195-5.623 3.532-5.686V-5.431C4.22-5.406 4.386-5.278 4.386-4.768V-1.645C4.386-.535 4.054-.089 3.238-.089 2.371-.089 1.912-.638 1.912-1.683V-4.768C1.912-5.278 2.078-5.406 2.741-5.431V-5.686C2.078-5.623 1.823-5.61 1.364-5.61 .918-5.61 .65-5.623-.013-5.686V-5.431C.765-5.393 .892-5.291 .892-4.743V-.803-.612C.88-.089 .803-.013 .166-.013 .128-.013 .064 0 0 0" fill="#231f20"/>
<path transform="matrix(1,0,0,-1,108.5141,14.4505009)" d="M0 0 3.455 5.686H1.887C1.058 5.686 .854 5.508 .395 4.36H.14L.433 6.018H4.819L1.352 .331H2.843C3.71 .331 4.067 .676 4.449 1.836H4.717L4.386 0Z" fill="#231f20"/>
<path transform="matrix(1,0,0,-1,0,31.1811)" d="M85.908 20.471H88.756999V19.812H85.908Z" fill="#231f20"/>
<path transform="matrix(1,0,0,-1,41.2612,21.4366)" d="M0 0C.04-.191 .064-.382 .064-.574 .064-.621 .064-.709 .056-.813 .319-.167 .598 .104 1.012 .104 1.179 .104 1.347 .064 1.514-.024V-.438C1.259-.327 1.171-.303 1.028-.303 .733-.303 .454-.534 .271-.924 .143-1.211 .088-1.546 .088-2.103V-3.769H-.335V-1.346C-.335-.51-.343-.414-.39 0Z" fill="#231f20"/>
<path transform="matrix(1,0,0,-1,43.8828,21.4366)" d="M0 0V-2.351C0-2.821 .032-3.012 .143-3.179 .279-3.37 .534-3.49 .821-3.49 1.163-3.49 1.458-3.323 1.641-3.02 1.761-2.821 1.809-2.582 1.809-2.167V0H2.223V-2.629C2.223-3.474 2.223-3.506 2.311-3.769H1.888C1.833-3.594 1.809-3.45 1.809-3.235 1.594-3.673 1.299-3.864 .813-3.864 .327-3.864-.096-3.633-.287-3.259-.39-3.052-.414-2.868-.414-2.335V0Z" fill="#231f20"/>
<path transform="matrix(1,0,0,-1,49.5722,22.655602)" d="M0 0C-.096 .613-.414 .948-.924 .948-1.601 .948-2.056 .295-2.056-.669-2.056-1.625-1.594-2.271-.908-2.271-.375-2.271-.04-1.904 .024-1.275H.454C.366-2.159-.112-2.645-.885-2.645-1.857-2.645-2.486-1.872-2.486-.677-2.486 .526-1.864 1.323-.916 1.323-.143 1.323 .335 .845 .414 0Z" fill="#231f20"/>
<path transform="matrix(1,0,0,-1,53.5724,21.4366)" d="M0 0-1.625-1.681 .112-3.769H-.478L-2.167-1.697-.51 0ZM-2.183-3.769H-2.5970002V1.5619998H-2.183Z" fill="#231f20"/>
<path transform="matrix(1,0,0,-1,56.3855,22.440503)" d="M0 0C-.056 .502-.311 .733-.821 .733-1.291 .733-1.617 .47-1.617 .104-1.617-.215-1.426-.366-.749-.566-.12-.757 .112-.861 .271-1.044 .406-1.203 .486-1.434 .486-1.705 .486-2.406-.032-2.861-.829-2.861-1.681-2.861-2.167-2.414-2.167-1.633H-1.761C-1.705-2.191-1.387-2.486-.829-2.486-.303-2.486 .048-2.183 .048-1.745 .048-1.53-.04-1.355-.199-1.251-.327-1.163-.359-1.147-1.044-.932-1.458-.805-1.681-.693-1.825-.526-1.96-.366-2.048-.136-2.048 .087-2.048 .693-1.546 1.107-.821 1.107-.048 1.107 .375 .725 .406 0Z" fill="#231f20"/>
<path transform="matrix(1,0,0,-1,59.7881,21.4366)" d="M0 0 1.084-3.227 2.207 0H2.645L1.418-3.45C1.076-4.43 1.004-4.589 .813-4.852 .574-5.179 .199-5.354-.231-5.354H-.366V-4.98C.311-4.988 .502-4.796 .852-3.761L-.446 0Z" fill="#231f20"/>
<path transform="matrix(1,0,0,-1,63.2785,23.301102)" d="M0 0C0-.972 .462-1.625 1.147-1.625 1.817-1.625 2.295-.956 2.295-.016 2.295 .932 1.825 1.594 1.147 1.594 .47 1.594 0 .94 0 0M2.725-.016C2.725-1.187 2.08-2 1.147-2 .199-2-.43-1.203-.43 .008-.43 1.163 .215 1.968 1.147 1.968 2.088 1.968 2.725 1.163 2.725-.016" fill="#231f20"/>
<path transform="matrix(1,0,0,-1,67.3822,21.4366)" d="M0 0V-2.351C0-2.821 .032-3.012 .143-3.179 .279-3.37 .534-3.49 .821-3.49 1.163-3.49 1.458-3.323 1.641-3.02 1.761-2.821 1.809-2.582 1.809-2.167V0H2.223V-2.629C2.223-3.474 2.223-3.506 2.311-3.769H1.888C1.833-3.594 1.809-3.45 1.809-3.235 1.594-3.673 1.299-3.864 .813-3.864 .327-3.864-.096-3.633-.287-3.259-.39-3.052-.414-2.868-.414-2.335V0Z" fill="#231f20"/>
<path transform="matrix(1,0,0,-1,75.0636,22.655602)" d="M0 0C-.095 .613-.414 .948-.924 .948-1.601 .948-2.056 .295-2.056-.669-2.056-1.625-1.594-2.271-.908-2.271-.374-2.271-.04-1.904 .024-1.275H.454C.367-2.159-.111-2.645-.884-2.645-1.856-2.645-2.486-1.872-2.486-.677-2.486 .526-1.864 1.323-.916 1.323-.143 1.323 .335 .845 .415 0Z" fill="#231f20"/>
<path transform="matrix(1,0,0,-1,78.5939,23.0778)" d="M0 0C-1.387-.271-1.857-.558-1.857-1.124-1.857-1.554-1.546-1.849-1.084-1.849-.693-1.849-.343-1.649-.167-1.339-.056-1.139 0-.852 0-.43ZM-2.167 .701C-2.096 1.386-1.625 1.745-.829 1.745-.223 1.745 .215 1.506 .343 1.107 .398 .932 .414 .765 .414 .295V-1.084C.414-1.769 .422-1.849 .51-2.127H.096C.04-1.936 .024-1.841 0-1.594-.231-2.008-.606-2.223-1.115-2.223-1.825-2.223-2.295-1.793-2.295-1.139-2.295-.319-1.689 .072 0 .327V.526C0 1.139-.231 1.37-.837 1.37-1.371 1.37-1.657 1.155-1.737 .701Z" fill="#231f20"/>
<path transform="matrix(1,0,0,-1,80.5144,21.4366)" d="M0 0C.056-.175 .072-.287 .072-.566 .327-.111 .693 .104 1.227 .104 1.777 .104 2.175-.127 2.319-.534 2.406-.773 2.414-.852 2.414-1.609V-3.769H2V-1.578C2-.972 1.984-.829 1.888-.637 1.769-.398 1.53-.271 1.195-.271 .51-.271 .096-.773 .096-1.601V-3.769H-.319V-1.259C-.319-.35-.319-.35-.406 0Z" fill="#231f20"/>
<path transform="matrix(1,0,0,-1,87.6542,21.4366)" d="M0 0V-.343H-.948L-.988-2.406-.996-2.741V-2.837C-.996-3.338-.9-3.482-.558-3.482-.39-3.482-.183-3.434-.016-3.354V-3.737C-.239-3.817-.39-3.84-.629-3.84-1.203-3.84-1.434-3.625-1.434-3.084-1.434-3.036-1.426-2.845-1.418-2.685L-1.41-2.382-1.363-.343H-1.928V0H-1.355L-1.339 1.092H-.924L-.94 0Z" fill="#231f20"/>
<path transform="matrix(1,0,0,-1,88.8175,21.4366)" d="M0 0C.04-.191 .064-.382 .064-.574 .064-.621 .064-.709 .056-.813 .319-.167 .598 .104 1.012 .104 1.179 .104 1.347 .064 1.514-.024V-.438C1.259-.327 1.171-.303 1.028-.303 .733-.303 .454-.534 .271-.924 .143-1.211 .088-1.546 .088-2.103V-3.769H-.334V-1.346C-.334-.51-.343-.414-.39 0Z" fill="#231f20"/>
<path transform="matrix(1,0,0,-1,91.4391,21.4366)" d="M0 0V-2.351C0-2.821 .032-3.012 .143-3.179 .279-3.37 .534-3.49 .821-3.49 1.163-3.49 1.458-3.323 1.641-3.02 1.761-2.821 1.809-2.582 1.809-2.167V0H2.223V-2.629C2.223-3.474 2.223-3.506 2.311-3.769H1.888C1.833-3.594 1.809-3.45 1.809-3.235 1.594-3.673 1.299-3.864 .813-3.864 .327-3.864-.096-3.633-.287-3.259-.39-3.052-.414-2.868-.414-2.335V0Z" fill="#231f20"/>
<path transform="matrix(1,0,0,-1,96.7858,22.440503)" d="M0 0C-.056 .502-.311 .733-.821 .733-1.291 .733-1.617 .47-1.617 .104-1.617-.215-1.426-.366-.749-.566-.12-.757 .112-.861 .271-1.044 .406-1.203 .486-1.434 .486-1.705 .486-2.406-.032-2.861-.829-2.861-1.681-2.861-2.167-2.414-2.167-1.633H-1.761C-1.705-2.191-1.386-2.486-.829-2.486-.303-2.486 .048-2.183 .048-1.745 .048-1.53-.04-1.355-.199-1.251-.327-1.163-.358-1.147-1.044-.932-1.458-.805-1.681-.693-1.825-.526-1.96-.366-2.048-.136-2.048 .087-2.048 .693-1.546 1.107-.821 1.107-.048 1.107 .375 .725 .406 0Z" fill="#231f20"/>
<path transform="matrix(1,0,0,-1,99.782,21.4366)" d="M0 0V-.343H-.948L-.988-2.406-.996-2.741V-2.837C-.996-3.338-.9-3.482-.558-3.482-.39-3.482-.183-3.434-.016-3.354V-3.737C-.239-3.817-.39-3.84-.629-3.84-1.203-3.84-1.434-3.625-1.434-3.084-1.434-3.036-1.426-2.845-1.418-2.685L-1.41-2.382-1.363-.343H-1.928V0H-1.355L-1.339 1.092H-.924L-.94 0Z" fill="#231f20"/>
<path transform="matrix(1,0,0,-1,40.5677,19.8908)" d="M0 0V-.399H-1.371V-5.314H-1.825V-.399H-3.203V0Z" fill="#231f20"/>
<path transform="matrix(1,0,0,-1,26.8827,21.619603)" d="M0 0-9.215 7.199-10.842 18.779C-8.741 18.713-6.687 18.129-4.863 17.076-2.924 15.956-1.314 14.346-.194 12.407 .925 10.468 1.515 8.268 1.515 6.029 1.515 3.923 .993 1.852 0 0M-4.863-5.018C-6.802-6.137-9.002-6.727-11.241-6.727-13.48-6.727-15.68-6.137-17.619-5.018-19.443-3.965-20.976-2.478-22.083-.692L-11.241 3.689-.399-.692C-1.507-2.478-3.039-3.965-4.863-5.018M-23.997 6.029C-23.997 8.268-23.408 10.468-22.288 12.407-21.169 14.346-19.558 15.956-17.619 17.076-15.795 18.129-13.741 18.713-11.64 18.779L-13.268 7.199-22.482 0C-23.476 1.852-23.997 3.923-23.997 6.029M1.033 13.116C-.211 15.27-2 17.059-4.155 18.303-6.309 19.547-8.753 20.202-11.241 20.202-13.729 20.202-16.173 19.547-18.328 18.303-20.482 17.059-22.272 15.27-23.516 13.116-24.759 10.961-25.414 8.517-25.414 6.029-25.414 3.541-24.759 1.097-23.516-1.058-22.272-3.212-20.482-5.001-18.328-6.245-16.173-7.489-13.729-8.144-11.241-8.144-8.753-8.144-6.309-7.489-4.155-6.245-2-5.001-.211-3.212 1.033-1.058 2.277 1.097 2.932 3.541 2.932 6.029 2.932 8.517 2.277 10.961 1.033 13.116" fill="#231f20"/>
</g>
</g>
</svg>
